<?xml version="1.0" encoding="UTF-8" standalone="no"?>
<!-- Created with Inkscape (http://www.inkscape.org/) -->

<svg
   xmlns:dc="http://purl.org/dc/elements/1.1/"
   xmlns:cc="http://creativecommons.org/ns#"
   xmlns:rdf="http://www.w3.org/1999/02/22-rdf-syntax-ns#"
   xmlns:svg="http://www.w3.org/2000/svg"
   xmlns="http://www.w3.org/2000/svg"
   xmlns:xlink="http://www.w3.org/1999/xlink"
   xmlns:sodipodi="http://sodipodi.sourceforge.net/DTD/sodipodi-0.dtd"
   xmlns:inkscape="http://www.inkscape.org/namespaces/inkscape"
   width="213"
   height="213"
   id="svg2"
   version="1.1"
   inkscape:version="0.47pre4 r22446"
   sodipodi:docname="loghound.svg">
  <defs
     id="defs4">
    <linearGradient
       inkscape:collect="always"
       id="linearGradient5922">
      <stop
         style="stop-color:#deaa87;stop-opacity:0"
         offset="0"
         id="stop5924" />
      <stop
         style="stop-color:#deaa87;stop-opacity:1"
         offset="1"
         id="stop5926" />
    </linearGradient>
    <linearGradient
       id="linearGradient5524"
       inkscape:collect="always">
      <stop
         id="stop5526"
         offset="0"
         style="stop-color:#aaffaa;stop-opacity:1" />
      <stop
         id="stop5528"
         offset="1"
         style="stop-color:#1a1a1a;stop-opacity:1" />
    </linearGradient>
    <linearGradient
       inkscape:collect="always"
       id="linearGradient4678">
      <stop
         style="stop-color:#ffffff;stop-opacity:1"
         offset="0"
         id="stop4680" />
      <stop
         style="stop-color:#b3b3b3;stop-opacity:1"
         offset="1"
         id="stop4682" />
    </linearGradient>
    <linearGradient
       inkscape:collect="always"
       id="linearGradient4607">
      <stop
         style="stop-color:#ab4519;stop-opacity:1"
         offset="0"
         id="stop4609" />
      <stop
         style="stop-color:#5b4b43;stop-opacity:1"
         offset="1"
         id="stop4611" />
    </linearGradient>
    <inkscape:perspective
       sodipodi:type="inkscape:persp3d"
       inkscape:vp_x="0 : 526.18109 : 1"
       inkscape:vp_y="0 : 1000 : 0"
       inkscape:vp_z="744.09448 : 526.18109 : 1"
       inkscape:persp3d-origin="372.04724 : 350.78739 : 1"
       id="perspective10" />
    <inkscape:perspective
       id="perspective2824"
       inkscape:persp3d-origin="0.5 : 0.33333333 : 1"
       inkscape:vp_z="1 : 0.5 : 1"
       inkscape:vp_y="0 : 1000 : 0"
       inkscape:vp_x="0 : 0.5 : 1"
       sodipodi:type="inkscape:persp3d" />
    <inkscape:perspective
       id="perspective2900"
       inkscape:persp3d-origin="0.5 : 0.33333333 : 1"
       inkscape:vp_z="1 : 0.5 : 1"
       inkscape:vp_y="0 : 1000 : 0"
       inkscape:vp_x="0 : 0.5 : 1"
       sodipodi:type="inkscape:persp3d" />
    <linearGradient
       inkscape:collect="always"
       xlink:href="#linearGradient4678"
       id="linearGradient5375"
       gradientUnits="userSpaceOnUse"
       x1="192.6866"
       y1="393.33865"
       x2="192.6866"
       y2="473.26743" />
    <linearGradient
       inkscape:collect="always"
       xlink:href="#linearGradient4607"
       id="linearGradient5377"
       gradientUnits="userSpaceOnUse"
       x1="188.5"
       y1="428.93829"
       x2="188.5"
       y2="451.52383" />
    <linearGradient
       inkscape:collect="always"
       xlink:href="#linearGradient4678"
       id="linearGradient5664"
       gradientUnits="userSpaceOnUse"
       x1="192.6866"
       y1="393.33865"
       x2="192.6866"
       y2="473.26743" />
    <linearGradient
       inkscape:collect="always"
       xlink:href="#linearGradient4607"
       id="linearGradient5666"
       gradientUnits="userSpaceOnUse"
       x1="188.5"
       y1="428.93829"
       x2="188.5"
       y2="451.52383" />
    <linearGradient
       inkscape:collect="always"
       xlink:href="#linearGradient5524"
       id="linearGradient5668"
       gradientUnits="userSpaceOnUse"
       x1="433.69388"
       y1="524.54108"
       x2="434.04745"
       y2="545.22394" />
    <linearGradient
       inkscape:collect="always"
       xlink:href="#linearGradient4678"
       id="linearGradient5670"
       gradientUnits="userSpaceOnUse"
       gradientTransform="translate(226,0)"
       x1="192.6866"
       y1="393.33865"
       x2="192.6866"
       y2="473.26743" />
    <linearGradient
       inkscape:collect="always"
       xlink:href="#linearGradient4607"
       id="linearGradient5672"
       gradientUnits="userSpaceOnUse"
       gradientTransform="translate(226,0)"
       x1="188.5"
       y1="428.93829"
       x2="188.5"
       y2="451.52383" />
    <radialGradient
       inkscape:collect="always"
       xlink:href="#linearGradient5922"
       id="radialGradient5930"
       cx="396.02057"
       cy="525.76514"
       fx="396.02057"
       fy="525.76514"
       r="66.451057"
       gradientTransform="matrix(1,0,0,0.20087359,0,420.15278)"
       gradientUnits="userSpaceOnUse" />
  </defs>
  <sodipodi:namedview
     id="base"
     pagecolor="#ffffff"
     bordercolor="#666666"
     borderopacity="1.0"
     inkscape:pageopacity="0.0"
     inkscape:pageshadow="2"
     inkscape:zoom="1"
     inkscape:cx="184.80539"
     inkscape:cy="157.35985"
     inkscape:document-units="px"
     inkscape:current-layer="layer1"
     showgrid="false"
     inkscape:window-width="1280"
     inkscape:window-height="751"
     inkscape:window-x="0"
     inkscape:window-y="1024"
     inkscape:window-maximized="1" />
  <metadata
     id="metadata7">
    <rdf:RDF>
      <cc:Work
         rdf:about="">
        <dc:format>image/svg+xml</dc:format>
        <dc:type
           rdf:resource="http://purl.org/dc/dcmitype/StillImage" />
        <dc:title></dc:title>
      </cc:Work>
    </rdf:RDF>
  </metadata>
  <g
     inkscape:label="Layer 1"
     inkscape:groupmode="layer"
     id="layer1"
     transform="translate(-290.31539,-357.25584)">
    <path
       sodipodi:type="arc"
       style="fill:#deaa87;fill-opacity:1;stroke:#4d4d4d;stroke-width:6.47727299;stroke-miterlimit:4;stroke-dasharray:none"
       id="path5770"
       sodipodi:cx="271"
       sodipodi:cy="104.44496"
       sodipodi:rx="114"
       sodipodi:ry="114"
       d="m 385,104.44496 c 0,62.96046 -51.03954,114 -114,114 -62.96046,0 -114,-51.03954 -114,-114 0,-62.96046 51.03954,-113.9999985 114,-113.9999985 62.96046,0 114,51.0395385 114,113.9999985 z"
       transform="matrix(0.9084036,0,0,0.9084036,150.63801,368.87766)" />
    <g
       id="g5530"
       transform="translate(-25.516415,32.39068)">
      <path
         style="fill:#ab4519;fill-opacity:1;stroke:none"
         d="m 414.12946,353.3125 c -1.5453,-0.0188 -3.08666,0.12032 -4.625,0.65625 -7.6595,4.99897 -10.12114,0.75272 -15.90625,5.5313 -2.47928,1.32497 -4.34813,3.20359 -6.21875,4.625 -0.72886,0.45799 -3.57852,2.13136 -3.96875,4.125 -0.9444,2.22849 -2.95363,2.41591 -3.9375,3.1875 -0.34268,1.85369 -1.6322,4.97436 -2.6875,5.40625 -2.03444,1.54985 -3.78236,2.36311 -4.78125,3.53125 -2.0705,2.2857 -2.89875,4.23913 -4.65625,6.78125 -0.92209,1.96683 -1.79239,3.94639 -2.84375,6.4375 -0.85039,3.22294 -2.17304,5.15283 -2.875,8.21875 -1.75562,2.44787 -2.88881,5.47738 -4.28125,8.21875 -1.36883,2.75313 -1.96914,4.79383 -3.28125,7.53125 -0.51863,2.01331 -2.23719,4.7484 -2.78125,7.46875 -1.75803,2.90146 -1.68936,5.3679 -3.21875,8.5625 -1.70313,3.78845 -2.36023,8.19716 -2.84375,12.5 -0.74987,3.7265 -0.50487,8.23672 1.0625,11.0625 1.13176,2.84659 1.8551,5.87575 3.75,8.40625 1.79349,1.9817 4.64592,4.72406 6.25,5.53125 1.2965,1.71988 4.46194,2.73025 6.78125,3.21875 1.34773,-0.0347 1.59118,-0.25107 1.625,-0.4375 l 0.25,0.0937 c 0.87475,-0.38284 1.70441,-0.21271 2.53125,0.0937 -0.81837,1.70365 -1.64652,3.59315 -2.25,5.25 -1.66376,2.42319 -3.03719,4.96134 -3.59375,7.84375 -1.20239,3.85671 0.92243,6.71369 2.5,9.3125 2.12783,2.46566 2.75559,2.45937 3.9375,4.28125 2.90591,1.61056 6.91327,1.93566 9.46875,3.5625 2.93959,1.1456 5.99874,-0.97723 9.09375,-1.4375 2.9201,-0.53943 4.91438,-0.87551 5.71875,-3.5625 1.02624,-3.54281 -0.38699,-8.25027 -1.4375,-11.4375 -1.03736,-2.64059 -1.90243,-4.92593 -2.84375,-7.84375 -0.58223,-3.73894 -1.54352,-7.54627 -2.84375,-10.1875 -1.2421,-2.34177 -2.48414,-6.03172 -2.5,-9.53125 -0.2357,-3.09425 0.36943,-5.83428 0.34375,-8.84375 1.5811,-2.48168 2.05723,-5.82444 3.5625,-7.5 0.57871,-1.48627 1.28001,-2.59428 1.96875,-3.625 3.89714,0.0709 7.97311,8.65089 11.1875,4.875 4.82864,-4.08856 11.28742,-26.03979 11.875,-32.25 0.83901,-4.30911 1.21563,-8.6743 1.1875,-13.03125 1.35987,-0.66863 2.6823,-1.36666 3.84375,-2.78125 2.44076,-3.66052 2.36031,-8.17875 3.5,-12.46875 0.10775,-2.28196 0.3691,-4.52749 0.5625,-6.78125 -0.14035,2.3499 -0.28811,4.6752 -0.1875,7.125 0.96862,3.45749 -2.50208,7.96299 0,9.625 2.17663,1.2169 2.06085,3.71908 4.3125,4.625 1.85988,1.64192 3.62203,2.79661 4.96875,3.96875 1.42483,1.27292 2.95638,2.64456 3.5625,4.625 0.44878,2.78822 1.91102,5.68034 2.90625,7.84375 1.10631,3.32997 3.19034,5.01016 2.8125,9.0625 -0.47883,2.94282 -0.52288,6.26918 0.375,9.1875 -0.39217,3.10633 1.03303,4.37781 0.71875,7.40625 -0.23712,3.84151 0.28937,7.3582 1.0625,10.78125 0.73258,3.1942 0.78857,6.4851 1.0625,9.5 0.22183,3.30054 -0.20058,6.49289 -1.78125,8 -0.36111,0.21791 -0.70043,0.43533 -1.03125,0.65625 l 0.375,0.5 c -0.0261,0.0145 -0.0447,0.0864 -0.0625,0.28125 l 0.15625,-0.15625 c 0.34638,0.99005 1.10233,8.33697 2,10.15625 2.03429,5.14149 4.76466,10.06775 6.78125,15.375 2.08753,3.65597 5.5465,6.86758 8.9375,9.28125 3.01441,0.35742 4.77039,3.36341 7.84375,3.5625 3.0707,-1.70583 7.19049,-0.69593 10.34375,-2.15625 2.43181,-1.10034 4.68644,-2.22774 7.5,-3.1875 2.13721,-1.92236 5.79123,-4.14165 8.21875,-7.125 2.94081,-2.0289 5.50725,-5.45003 6.4375,-7.875 -1.17186,-1.27309 -2.58951,-2.64671 -3.21875,-3.9375 l -1.125,-3.59375 c 0.21111,-0.0492 0.47613,-0.92514 0.78125,-1.40625 1.07997,-1.69193 1.94574,-3.20229 2.84375,-5 1.29406,-1.69246 2.16995,-4.47075 2.5,-7.15625 -0.3823,-2.37054 -0.974,-4.63279 -1.0625,-7.125 -0.77127,-4.7464 -1.73492,-8.73709 -2.15625,-13.59375 -0.82621,-4.57771 -1.51835,-9.19168 -2.84375,-13.5625 -0.78976,-3.32257 -1.00982,-6.87117 -1.4375,-10.34375 -1.27905,-3.43729 -1.3379,-7.42637 -2.84375,-10.71875 -0.74438,-2.21229 -1.81961,-4.74221 -3.59375,-6.78125 -0.75976,-1.91277 -2.75992,-3.57345 -3.5625,-5.375 -1.53968,-3.30106 -0.31101,-6.18271 -1.4375,-9.625 -1.66182,-2.24277 -3.89988,-3.16777 -5.6875,-5.375 -1.62313,-0.98055 -1.53821,-3.0237 -3.96875,-3.6875 -0.7568,-0.79204 -3.70072,-2.13386 -4.28125,-2.5625 -2.04563,-1.22543 -3.95941,-2.53223 -5.6875,-5.53125 -0.80664,-1.05712 -3.09585,-1.716 -3.21875,-4.28125 -1.07454,-1.10558 -1.92403,-1.6198 -3.28125,-3.3125 -2.3116,-1.27954 -2.92711,-2.21056 -5.65625,-3.46875 -2.79998,-0.98202 -4.55263,-2.17543 -6.9375,-3.53125 -0.96145,-1.15753 -4.38836,-2.05769 -6.96875,-2.53125 -3.99296,-1.75629 -9.03835,-1.81937 -13.21875,-2.875 -2.70111,0.2019 -5.29949,-0.24985 -7.875,-0.28125 l 0,5e-5 z m 6.78125,17.4375 c 0.14235,2.24918 0.0505,4.42243 -0.125,6.59375 0.12777,-2.16495 0.22046,-4.33692 0.125,-6.59375 z"
         id="path5295"
         sodipodi:nodetypes="cccccccccccccccccccccccccccccccccccccccccccccccccccccccccccccccccccccsccccccccccccccccccccccccc" />
      <path
         style="fill:#333333;stroke:none"
         d="m 447.41769,390.43883 c -0.80143,0.76308 -1.63411,2.52961 -3.7888,2.76009 -2.1547,0.23048 -5.02534,-2.94555 -5.09102,-5.31807 -0.0657,-2.37252 0.42458,-4.45834 1.64212,-5.77379 1.21754,-1.31545 2.23486,-2.07179 3.91788,-1.93475 1.68302,0.13704 3.46183,1.39286 5.01256,2.19396 1.55073,0.8011 2.2303,2.76665 2.10228,4.2296 -0.12802,1.46295 -1.13408,2.70173 -2.08156,2.99079 -0.94748,0.28906 -0.91203,0.0891 -1.71346,0.85217 z"
         id="path5299"
         sodipodi:nodetypes="czzzzzzzz" />
      <path
         style="fill:#333333;stroke:none"
         d="m 403.60489,385.1193 c -0.18906,1.83393 -1.67898,3.12505 -3.01003,4.23036 -1.3116,0.97428 -2.93911,1.34996 -4.48388,1.78079 -0.89463,0.16453 -1.8318,-0.36713 -2.06852,-1.26019 -0.341,-0.84773 -0.60355,-1.73732 -1.12123,-2.50023 -0.39219,-0.77717 -0.74188,-1.60702 -0.77421,-2.48902 -1.41847,0.83963 -3.4273,-0.83465 -2.82107,-2.37973 0.43637,-1.92269 2.20753,-3.28607 4.06661,-3.70823 1.72115,-0.69441 3.4273,-1.78542 5.36027,-1.59562 1.75352,0.13001 3.57957,1.18669 4.11187,2.94188 0.57455,1.58668 0.89169,3.2904 0.74019,4.97999 z"
         id="path5301" />
      <path
         id="path5303"
         d="m 366.09673,431.45535 c 3.66617,7.27219 7.43752,14.7444 7.1319,23.15173 0.60915,8.39223 -4.27378,15.31059 -7.40356,22.67486 -3.60561,5.96023 -7.43079,14.23267 -1.13995,19.99075 4.85219,5.36123 13.56072,9.04085 20.60939,5.85176 10.25093,0.15839 7.34565,-12.11612 4.33339,-18.11764 -2.16204,-7.41499 -4.44288,-14.75797 -6.87995,-22.06942 -1.09223,-7.22295 0.53203,-14.33819 4.37353,-20.47392 -0.36906,-1.40599 5.62109,-5.99377 3.26096,-5.29383"
         style="fill:none;stroke:#000000;stroke-width:1px;stroke-linecap:butt;stroke-linejoin:miter;stroke-opacity:1" />
      <path
         id="path5305"
         d="m 383.95387,389.3125 c -1.24223,14.48606 2.78949,28.60821 6.40066,42.44952 0.63217,1.87458 -0.0197,3.96426 0.7422,5.76476"
         style="fill:none;stroke:#000000;stroke-width:1px;stroke-linecap:butt;stroke-linejoin:miter;stroke-opacity:1" />
      <path
         id="path5307"
         d="m 373.59673,385.38393 c -1.78381,7.49767 -1.9746,15.28857 -2.48026,22.94792 0.54971,8.32839 3.20356,16.67978 9.19261,22.77331 3.80776,2.95742 3.7253,8.31472 7.58776,10.27257"
         style="fill:none;stroke:#000000;stroke-width:1px;stroke-linecap:butt;stroke-linejoin:miter;stroke-opacity:1"
         sodipodi:nodetypes="cccc" />
      <path
         id="path5309"
         d="m 457.16816,384.3125 c 0.31606,8.15718 0.92848,16.34985 -0.90538,24.38226 -0.83975,7.4835 -3.32341,14.58647 -7.35933,20.93121 -2.45806,7.21446 -6.70728,13.96009 -7.54866,21.60868 0.0699,1.85558 -0.0416,3.77089 0.45623,5.57785"
         style="fill:none;stroke:#000000;stroke-width:1px;stroke-linecap:butt;stroke-linejoin:miter;stroke-opacity:1" />
      <path
         id="path5311"
         d="m 439.66816,471.09821 c 0.9707,4.36414 1.96329,11.81754 5.09631,16.66728 3.09349,7.37274 6.71012,15.81061 14.82802,18.65641 5.89656,5.03828 14.3164,1.32711 20.67883,-1.31789 7.12631,-3.38745 13.70089,-9.23174 17.61112,-16.14866 -5.57018,-6.27342 -10.1721,-13.37786 -13.09436,-21.25965 -4.78014,-8.21316 -6.20021,-18.35158 -4.68753,-27.65604 0.76424,-3.02013 1.84658,-6.16907 0.99618,-9.29859"
         style="fill:none;stroke:#000000;stroke-width:1px;stroke-linecap:butt;stroke-linejoin:miter;stroke-opacity:1" />
      <path
         style="fill:#000000;stroke:none"
         d="m 446.49945,383.26881 c -0.1296,0.70863 -0.11062,1.46989 -0.45196,2.121 -0.31091,0.38396 -0.62402,0.778 -1.00694,1.09146 -0.36127,0.19244 -0.64625,0.54476 -1.04276,0.64831 -0.36018,0.0833 -0.73365,0.1382 -1.06681,0.30741 -0.43952,-0.062 -0.85158,-0.23679 -1.2573,-0.4087 -0.36369,-0.32038 -0.52945,-0.7933 -0.77285,-1.20016 -0.21311,-0.41986 -0.23777,-0.89865 -0.19613,-1.35878 0.0355,-0.7377 0.27191,-1.48135 0.74845,-2.05431 0.73478,-0.39204 1.46879,-0.80677 2.08857,-1.36969 0.49677,-0.26416 1.13468,-0.13937 1.55275,0.21737 0.46988,0.20057 1.10082,0.24731 1.34609,0.7671 0.19007,0.38288 0.1802,0.83719 0.0589,1.23899 z"
         id="path5313" />
      <path
         style="fill:#000000;stroke:none"
         d="m 402.114,383.51136 c 0.27259,0.46899 -0.1241,1.14937 -0.67224,1.12306 -0.40475,0.10284 -0.76017,0.37526 -0.97549,0.73173 -0.46172,0.46859 -1.19365,0.59569 -1.81165,0.41113 -1.54272,-0.10158 -2.86538,-1.58832 -2.7307,-3.13927 0.17334,-0.77153 0.12826,-1.65603 0.68884,-2.28213 0.54847,-0.77728 1.47147,-1.13617 2.31963,-1.48247 0.94252,-0.34258 2.11751,-0.15884 2.78445,0.63101 0.40298,0.45234 0.53411,1.07544 0.50221,1.66633 -10e-4,0.78175 -0.17072,1.55789 -0.10505,2.34061 z"
         id="path5315" />
      <path
         style="fill:#ab4519;fill-opacity:1;stroke:none"
         d="m 416.54176,410.09037 c -0.35403,0.20545 -0.52413,0.62669 -0.53364,1.02174 -0.36921,0.50933 -1.08039,0.52606 -1.64059,0.40322 -1.05529,-0.17587 -1.83223,-1.39894 -1.42859,-2.41729 0.28761,-0.99871 1.14328,-1.81569 2.1653,-2.02611 0.99303,-0.31546 2.12697,-0.48747 3.10246,-0.0223 0.55693,0.29292 0.81812,1.03216 0.54816,1.60562 -0.27965,0.69366 -1.0163,1.0166 -1.46502,1.57376 -0.0629,0.13217 -0.19594,0.28593 -0.19933,0.0425 -0.12391,-0.16938 -0.35911,-0.17364 -0.54875,-0.18114 z"
         id="path5317" />
      <path
         style="fill:#ab4519;fill-opacity:1;stroke:none"
         d="m 425.73959,408.95535 c -0.0918,-0.37445 -0.60387,-0.41107 -0.69086,-0.78846 -0.21339,-0.31991 -0.69764,-0.41351 -0.77476,-0.83164 -0.27669,-0.6858 -0.57622,-1.44025 -0.3683,-2.18719 0.0792,-0.39793 0.23736,-0.82959 0.60789,-1.04285 0.68274,-0.16334 1.3251,-0.53648 2.04037,-0.53387 0.70364,0.13273 1.23342,0.8244 1.22444,1.5327 0.12246,0.61908 0.59619,1.17946 0.45709,1.83846 -0.20071,0.56853 -0.83654,0.78457 -1.14625,1.27479 -0.27433,0.34163 -0.63725,0.68068 -1.10165,0.6911 -0.0829,0.0142 -0.166,0.0282 -0.24797,0.047 z"
         id="path5319" />
      <path
         style="fill:#ab4519;fill-opacity:1;stroke:none"
         d="m 409.625,406.84375 c -0.31313,0.0331 -0.67564,-0.10957 -0.94462,0.11482 -0.50753,0.36939 -1.12255,0.66002 -1.42957,1.23779 -0.15541,0.30304 -0.20635,0.69958 -0.005,0.99423 0.20673,0.1495 0.4826,0.11768 0.71202,0.21646 0.24225,0.0705 0.47245,-0.0392 0.66078,-0.18237 0.2181,-0.12029 0.50373,-0.19995 0.60019,-0.45526 0.15771,-0.25602 0.44893,-0.0833 0.55207,0.1192 0.19084,0.18189 0.35612,-0.0324 0.40683,-0.21286 0.24212,-0.37057 0.61761,-0.71262 0.61104,-1.18935 -0.0126,-0.34701 -0.33333,-0.60979 -0.66459,-0.64058 -0.16549,-0.024 -0.33343,-0.0128 -0.4994,-0.002 z"
         id="path5321" />
      <path
         style="fill:none;stroke:#000000;stroke-width:1px;stroke-linecap:butt;stroke-linejoin:miter;stroke-opacity:1"
         d="m 406.54316,461.45535 c 1.36101,0.53226 3.11233,2.38072 4.62087,2.51209 1.44934,-0.10948 2.92087,-0.0208 4.33188,0.33931 2.10395,-0.13156 3.981,-1.33881 5.41276,-2.82041 0.46097,-0.37837 -1.50837,-2.24149 -1.50837,-2.24149"
         id="path5329"
         sodipodi:nodetypes="ccccc" />
      <path
         style="fill:none;stroke:#000000;stroke-width:1px;stroke-linecap:butt;stroke-linejoin:miter;stroke-opacity:1"
         d="m 349.25,451.11218 c 1.44544,2.71041 9.32325,15.75 14.5,15.75 0.98943,0 3.83686,2.32629 4.5,1"
         id="path5371" />
      <g
         transform="translate(-2.0000001,-73.775126)"
         id="g5467">
        <path
           id="path5460"
           style="fill:url(#linearGradient5668);fill-opacity:1;stroke:none"
           d="m 367.34197,526.13208 c 0.53741,0.5374 10.18732,0.80304 12.02082,1.41421 17.4353,5.81177 43.39736,1.25239 61.51829,-1.76777 7.98376,-1.33062 22.64036,-3.89555 26.87006,-6.0104 0,0 -0.35356,0.35355 -0.35356,0.35355 3.72519,3.72519 6.74211,18.00663 2.47488,22.27386 0,0 -0.70711,0 -0.70711,0 -2.70901,0 -13.80615,-4.77736 -20.15254,-6.36396 -4.35877,-1.08969 -9.11706,-0.33472 -13.43503,-1.41421 -12.66744,-3.16686 -31.66227,-0.87747 -43.84062,3.18198 -2.81933,0.93977 -5.80286,2.42299 -8.83884,3.18198 -5.07295,1.26824 -10.68173,2.33408 -14.84924,4.24264 l -0.22097,-0.21089 c -0.59475,-1.01255 -1.37472,-1.64458 -1.85616,-2.60746 -0.2262,-0.45241 -0.21633,-1.0072 -0.44194,-1.45841 -0.0663,-0.13257 0.0219,-0.35391 -0.0442,-0.48613 -0.18519,-0.37038 -0.12381,-0.86633 -0.30936,-1.23744 -0.45221,-0.90442 -0.88388,-3.934 -0.88388,-5.08233 0,-0.56807 -0.0331,-2.27617 0.22097,-2.78423 0.10225,-0.20451 0.26516,-0.69827 0.26516,-0.88389 0,-0.8239 0.98144,-1.82112 1.37002,-2.20971 0.12362,-0.12362 0.31374,-0.13696 0.44194,-0.26516 0.0341,-0.0341 0.52005,-0.36383 0.66292,-0.22097 0.12889,0.12889 0.30977,0.22138 0.48613,0.39775 0.41838,0.41837 0.58625,1.42593 0.97227,1.81196 0.0368,0.0368 0.007,0.13994 0.0442,0.17677 0.16264,0.16265 0.3818,-1.07297 0.44194,-1.19324 0.053,-0.10594 -0.27313,-0.58249 -0.30936,-0.61872 -0.0407,-0.0407 -0.0134,-0.29186 -0.0442,-0.35355 -0.3637,-0.72738 -0.58287,-1.81382 -1.50261,-1.86623 z"
           sodipodi:nodetypes="cssccccssssc" />
        <g
           id="g5431"
           transform="translate(0,73.75)"
           style="fill:none">
          <path
             id="path5423"
             d="m 368.75619,452.38208 c -0.47141,0 -1.74755,-0.33334 -1.41422,0 0.53741,0.5374 10.18732,0.80304 12.02082,1.41421 17.4353,5.81177 43.39736,1.25239 61.51829,-1.76777 7.98376,-1.33062 22.64036,-3.89555 26.87006,-6.0104"
             style="fill:none;stroke:#000000;stroke-width:1px;stroke-linecap:butt;stroke-linejoin:miter;stroke-opacity:1" />
          <path
             id="path5425"
             d="m 368.04908,471.47396 c 4.16751,-1.90856 9.77629,-2.9744 14.84924,-4.24264 3.03598,-0.75899 6.01951,-2.24221 8.83884,-3.18198 12.17835,-4.05945 31.17318,-6.34884 43.84062,-3.18198 4.31797,1.07949 9.07626,0.32452 13.43503,1.41421 6.34639,1.5866 17.44353,6.36396 20.15254,6.36396"
             style="fill:none;stroke:#000000;stroke-width:1px;stroke-linecap:butt;stroke-linejoin:miter;stroke-opacity:1" />
          <path
             id="path5427"
             d="m 368.22585,453.53112 c -1.10315,-3.20605 2.47488,4.12669 2.47488,5.3033 0,1.3539 0.7071,2.88875 0.7071,4.24264 0,20.92996 -11.64196,-2.14662 -4.94974,-8.83883 2.07719,-2.0772 4.5935,8.84152 2.47487,10.96015 -0.43605,0.43605 -0.67175,-0.31819 -0.70711,-0.35355 -1.90641,-1.90641 0,-5.69091 0,-2.47487"
             style="fill:none;stroke:#000000;stroke-width:1px;stroke-linecap:butt;stroke-linejoin:miter;stroke-opacity:1" />
          <path
             id="path5429"
             d="m 468.8118,447.43233 c -0.47141,-0.35355 -1.83088,-1.47733 -1.41422,-1.06066 3.72519,3.72519 6.74211,18.00663 2.47488,22.27386 -0.17955,0.17955 -1.7118,-0.57059 -2.12132,-0.7071"
             style="fill:none;stroke:#000000;stroke-width:1px;stroke-linecap:butt;stroke-linejoin:miter;stroke-opacity:1" />
        </g>
      </g>
      <path
         sodipodi:nodetypes="ccccccccccccccccccccccccccccccccccccccsccsc"
         id="path5297"
         d="m 420.75,370.75 c 0.0977,2.3104 0.007,4.53396 -0.125,6.75 0.18302,-2.22276 0.27077,-4.44678 0.125,-6.75 z m -0.15625,7.15625 c -0.19341,2.25376 -0.45475,4.49929 -0.5625,6.78125 -1.13969,4.29 -1.05924,8.80823 -3.5,12.46875 -1.79791,2.18977 -4.00208,2.64463 -6.125,3.96875 -3.10384,0.97267 -5.44446,3.89842 -7.15625,6.75 -1.42738,1.82708 -2.55191,4.17711 -3.5625,6.4375 -1.82627,1.64558 -2.3819,4.23685 -3.9375,5.34375 -0.54382,2.4969 1.2334,6.67526 0,9.8125 -0.71968,4.20512 -1.24772,8.49798 -2.84375,12.34375 -0.58805,0.23509 -1.67273,-1.12628 -1.0625,0.34375 l -0.0312,0 c -0.21699,5.31757 0.55447,10.41019 0.375,15.71875 -0.4964,3.71629 -0.51934,9.13115 3.21875,10.71875 1.8147,1.60117 4.0092,1.74744 6.78125,1.78125 1.55462,-0.88641 2.39697,-1.973 3.9375,-3.21875 1.7606,-0.49275 3.13425,-1.49263 5,-2.125 3.7586,0.14835 8.45877,-0.62107 11.0625,1.4375 1.37843,1.49964 3.58486,2.83071 4.625,4.28125 2.13184,2.02126 5.75126,3.10877 9.3125,2.125 1.493,-1.32904 2.70368,-2.26676 4.28125,-3.21875 1.58067,-1.50711 2.00308,-4.69946 1.78125,-8 -0.27393,-3.0149 -0.32992,-6.3058 -1.0625,-9.5 -0.77313,-3.42305 -1.33087,-6.93974 -1.09375,-10.78125 0.31428,-3.02844 -1.11092,-4.29992 -0.71875,-7.40625 -0.89788,-2.91832 -0.82258,-6.24468 -0.34375,-9.1875 0.37784,-4.05234 -1.73744,-5.73253 -2.84375,-9.0625 -0.99523,-2.16341 -2.42622,-5.05553 -2.875,-7.84375 -0.60612,-1.98044 -2.13767,-3.35208 -3.5625,-4.625 -1.34672,-1.17214 -3.14012,-2.32683 -5,-3.96875 -2.25165,-0.90592 -2.10462,-3.4081 -4.28125,-4.625 -2.50208,-1.66201 0.96862,-6.16751 0,-9.625 -0.10062,-2.4498 0.0471,-4.7751 0.1875,-7.125 l -5e-5,0 z m -3.4375,78.71875 2.71875,3.21875 c 0,0 -4.12778,0.0372 -6.1875,0.15625 -2.19277,0.12675 -6.5625,0.59375 -6.5625,0.59375 l 2.90625,-3.25 c 0,0 1.42161,-2.29732 3.28125,-2.5 1.95324,-0.21288 3.84375,1.78125 3.84375,1.78125 z"
         style="fill:url(#linearGradient5670);fill-opacity:1;stroke:none" />
      <path
         style="fill:url(#linearGradient5672);fill-opacity:1;stroke:none"
         d="m 409,413.125 c -0.63219,0.0652 -1.25858,0.26751 -1.84375,0.59375 -2.51491,1.99384 -4.54549,4.60258 -5.90625,7.5 -0.45016,1.84139 -0.58799,3.81722 -1.71875,5.40625 -0.47584,1.4839 0.0719,3.00522 0.9375,4.25 -0.4296,2.89652 0.19947,5.21788 2.03125,7.8125 1.57815,2.23537 3.26058,3.45107 4.90625,4.46875 2.25964,1.39737 1.25086,4.60133 -0.0312,6.40625 -3.30909,3.27985 -15.34692,15.53733 -5.0625,16.25 2.2172,-1.2692 3.50597,-3.6625 5.21875,-5.5 1.48102,-1.92596 2.91802,-4.0963 5.125,-5.25 1.8917,-0.66847 3.76351,0.68244 4.90625,2.09375 2.54678,2.89266 5.16058,5.9605 8.8125,7.46875 1.83365,0.89314 3.69101,1.78018 5.65625,2.34375 2.32262,-3.07953 -11.27811,-10.27798 -10.8125,-16.96875 0.40112,-5.76411 8.9432,-7.45229 11.25,-13.1875 1.05944,-2.634 1.72576,-5.06808 0.875,-7.90625 0.39397,-3.62202 -1.25152,-6.35605 -1.3125,-6.59375 -0.94361,-1.54835 -3.56532,-2.93896 -3.90625,-4.78125 0.0138,-1.9204 -1.31038,-3.78489 -3.21875,-4.21875 -2.35391,-0.66257 -4.03494,2.24707 -6.375,1.46875 -2.34006,-0.77832 -2.31505,1.8891 -4.21875,0.25 -1.42777,-1.22933 -3.41591,-2.1017 -5.3125,-1.90625 z"
         id="path5333" />
      <path
         style="font-size:medium;font-style:normal;font-variant:normal;font-weight:normal;font-stretch:normal;text-indent:0;text-align:start;text-decoration:none;line-height:normal;letter-spacing:normal;word-spacing:normal;text-transform:none;direction:ltr;block-progression:tb;writing-mode:lr-tb;text-anchor:start;color:#000000;fill:#ffffff;fill-opacity:1;stroke:none;stroke-width:3;marker:none;visibility:visible;display:inline;overflow:visible;enable-background:accumulate;font-family:Bitstream Vera Sans;-inkscape-font-specification:Bitstream Vera Sans"
         d="m 413.71875,453.40625 c -0.51071,-0.007 -1.04052,0.0655 -1.5625,0.25 l -0.0937,0.0312 -0.125,0.0625 c -2.60711,1.36287 -4.0873,3.68056 -5.5,5.53125 -0.0248,0.0326 -0.0691,0.0616 -0.0937,0.0937 -2.06413,2.24495 -3.39994,4.50122 -5.40625,5.4375 -0.33146,0.15468 -0.49556,0.69378 -0.49556,0.69378 l 1.05806,0.71247 c 2.73232,-1.09471 4.11935,-3.85513 6.03125,-5.90625 1.48102,-1.92596 2.91802,-4.0963 5.125,-5.25 1.8917,-0.66847 3.76351,0.68244 4.90625,2.09375 2.54678,2.89266 5.16058,5.9605 8.8125,7.46875 2.06833,1.00745 4.15398,2.03367 6.40625,2.5625 0,0 -0.49594,-1.51294 -0.49594,-1.51294 -2.03135,-0.47696 -3.18129,-1.3837 -5.25406,-2.39331 L 427,463.25 l -0.0312,0 c -3.20437,-1.32341 -5.70938,-4.14556 -8.25,-7.03125 -0.0151,-0.0172 -0.0162,-0.0453 -0.0312,-0.0625 l -0.0312,0.0312 c -0.67232,-0.82 -1.50873,-1.63854 -2.59375,-2.1875 -0.55338,-0.27998 -1.17707,-0.48562 -1.84375,-0.5625 -0.16667,-0.0192 -0.32976,-0.0289 -0.5,-0.0312 l -1.5e-4,0 z"
         id="path5335"
         sodipodi:nodetypes="ccccscscccccccccccsccsscc" />
      <path
         style="fill:#000000;stroke:none"
         d="m 404.31102,439.66964 c 2.04621,2.45831 4.80293,4.31227 7.76047,5.48569 6.714,2.10412 14.46486,-0.8958 18.35384,-6.6815 2.99112,-3.81626 3.11304,-9.4669 0.51634,-13.52152 -2.30155,-3.93807 -6.70566,-6.50147 -11.25516,-6.64328 -4.79509,-0.60654 -9.87821,0.26024 -13.95338,2.94187 -4.27568,4.12368 -5.99196,11.08643 -3.18223,16.48395 0.46762,0.74066 1.05671,1.40987 1.76012,1.93479 z"
         id="path5339" />
      <path
         sodipodi:type="arc"
         style="fill:#999999;fill-opacity:1;stroke:none"
         id="path5341"
         sodipodi:cx="193.0625"
         sodipodi:cy="424.48718"
         sodipodi:rx="7.25"
         sodipodi:ry="3.875"
         d="m 200.3125,424.48718 c 0,2.14011 -3.24594,3.875 -7.25,3.875 -4.00406,0 -7.25,-1.73489 -7.25,-3.875 0,-2.1401 3.24594,-3.875 7.25,-3.875 4.00406,0 7.25,1.7349 7.25,3.875 z"
         transform="translate(223.6875,-0.625)" />
      <path
         sodipodi:type="arc"
         style="fill:#ffffff;fill-opacity:1;stroke:none"
         id="path5343"
         sodipodi:cx="174.92188"
         sodipodi:cy="380.87781"
         sodipodi:rx="0.703125"
         sodipodi:ry="0.765625"
         d="m 175.625,380.87781 c 0,0.42284 -0.3148,0.76562 -0.70313,0.76562 -0.38832,0 -0.70312,-0.34278 -0.70312,-0.76562 0,-0.42285 0.3148,-0.76563 0.70312,-0.76563 0.38833,0 0.70313,0.34278 0.70313,0.76563 z"
         transform="matrix(1.3877551,0,0,1.3877551,157.90051,-147.39044)" />
      <path
         d="m 175.625,380.87781 c 0,0.42284 -0.3148,0.76562 -0.70313,0.76562 -0.38832,0 -0.70312,-0.34278 -0.70312,-0.76562 0,-0.42285 0.3148,-0.76563 0.70312,-0.76563 0.38833,0 0.70313,0.34278 0.70313,0.76563 z"
         sodipodi:ry="0.765625"
         sodipodi:rx="0.703125"
         sodipodi:cy="380.87781"
         sodipodi:cx="174.92188"
         id="path5345"
         style="fill:#ffffff;fill-opacity:1;stroke:none"
         sodipodi:type="arc"
         transform="matrix(1.3673469,0,0,1.3673469,205.23469,-137.63305)" />
      <path
         style="fill:none;stroke:#000000;stroke-width:1px;stroke-linecap:butt;stroke-linejoin:miter;stroke-opacity:1"
         d="m 402.06959,370.00414 c -0.44549,0.30396 -1.67656,1.2771 -0.52732,0.60432 1.66073,-0.88564 3.32632,-2.00154 5.27151,-2.0471 3.21141,-0.45665 6.88066,0.38099 8.99202,2.99261 0.9522,1.1823 1.43089,2.80857 0.87235,4.27278 -0.49075,1.6474 -1.52203,3.09127 -1.88019,4.78392"
         id="path5347" />
      <path
         style="fill:none;stroke:#000000;stroke-width:1px;stroke-linecap:butt;stroke-linejoin:miter;stroke-opacity:1"
         d="m 394.99852,375.66099 c 5.39158,-6.00703 19.90128,-0.31046 15.55632,8.48505"
         id="path5349" />
      <path
         style="fill:none;stroke:#000000;stroke-width:1px;stroke-linecap:butt;stroke-linejoin:miter;stroke-opacity:1"
         d="m 402.06959,396.16709 c -0.26788,5.32323 -4.9118,8.73517 -7.77826,12.72792"
         id="path5351" />
      <path
         style="fill:none;stroke:#000000;stroke-width:1px;stroke-linecap:butt;stroke-linejoin:miter;stroke-opacity:1"
         d="m 395.70563,397.5813 c -1.67179,1.2607 -0.2163,3.84538 -2.12168,4.94975"
         id="path5353" />
      <path
         style="fill:none;stroke:#000000;stroke-width:1px;stroke-linecap:butt;stroke-linejoin:miter;stroke-opacity:1"
         d="m 428.93965,382.02495 c -2.09066,-1.16548 -3.23021,-3.75199 -2.71452,-6.0836 0.23584,-1.1859 0.92246,-2.24772 1.83142,-3.02953 1.32595,-1.80733 3.94132,-2.56673 5.99234,-1.59893 0.46636,0.19533 0.85301,0.51845 1.25469,0.81294"
         id="path5355" />
      <path
         style="fill:none;stroke:#000000;stroke-width:1px;stroke-linecap:butt;stroke-linejoin:miter;stroke-opacity:1"
         d="m 435.30361,383.43917 c -1.04056,-1.80827 -1.64545,-4.05361 -0.92731,-6.08775 0.40982,-1.15485 1.33456,-2.07182 2.42634,-2.59862 1.83309,-1.67709 4.38752,-2.76373 6.89615,-2.35664 1.06421,0.16724 2.04054,0.68842 2.85782,1.37515 0.25584,0.15866 0.51184,0.31707 0.76786,0.47544"
         id="path5357" />
      <path
         style="fill:none;stroke:#000000;stroke-width:1px;stroke-linecap:butt;stroke-linejoin:miter;stroke-opacity:1"
         d="m 438.83914,379.90363 c 1.09512,-1.60211 3.05136,-2.45813 4.95568,-2.5109 1.6087,-0.0536 3.31811,0.54499 4.28314,1.88675 0.29399,0.40196 0.51405,0.85591 0.66068,1.3313"
         id="path5359" />
      <path
         style="fill:none;stroke:#000000;stroke-width:1px;stroke-linecap:butt;stroke-linejoin:miter;stroke-opacity:1"
         d="m 438.83914,392.63156 c 2.07861,1.44613 5.2472,4.40584 7.77819,2.12091"
         id="path5361" />
      <path
         style="fill:none;stroke:#000000;stroke-width:1px;stroke-linecap:butt;stroke-linejoin:miter;stroke-opacity:1"
         d="m 447.32442,402.53105 c -1.163,2.14084 -1.74027,4.63954 -1.4137,7.07107"
         id="path5363" />
      <path
         style="fill:none;stroke:#000000;stroke-width:1px;stroke-linecap:butt;stroke-linejoin:miter;stroke-opacity:1"
         d="m 440.96046,406.06658 c 0.59949,3.61515 1.53149,7.17807 2.82845,10.60661"
         id="path5365" />
      <path
         style="fill:none;stroke:#000000;stroke-width:1px;stroke-linecap:butt;stroke-linejoin:miter;stroke-opacity:1"
         d="m 388.63456,373.53967 c -1.17782,2.59171 -1.92866,5.39634 -3.53553,7.77818"
         id="path5367" />
      <path
         style="fill:none;stroke:#000000;stroke-width:1px;stroke-linecap:butt;stroke-linejoin:miter;stroke-opacity:1"
         d="m 463.58788,390.51024 c 8.07448,20.68832 -9.42548,38.7571 -19.09157,55.15432"
         id="path5369" />
      <path
         style="fill:none;stroke:#000000;stroke-width:1px;stroke-linecap:butt;stroke-linejoin:miter;stroke-opacity:1"
         d="m 494,462.36218 c -0.16667,-0.66666 -0.5,-2.68718 -0.5,-2 0,6.64793 -0.12058,12.62059 -4,16.5"
         id="path5373" />
      <path
         style="fill:none;stroke:#000000;stroke-width:1px;stroke-linecap:butt;stroke-linejoin:miter;stroke-opacity:1"
         d="m 401.48967,466.21547 c 2.73232,-1.09471 4.1332,-3.85964 6.0451,-5.91076 1.48102,-1.92596 2.90628,-4.08515 5.11326,-5.23885 1.8917,-0.66847 3.77382,0.67999 4.91656,2.0913 2.54678,2.89266 5.16975,5.95773 8.82167,7.46598 2.06833,1.00745 4.15587,2.03689 6.40814,2.56572"
         id="path5337"
         sodipodi:nodetypes="cccccc" />
      <path
         style="fill:none;stroke:#000000;stroke-width:1px;stroke-linecap:butt;stroke-linejoin:miter;stroke-opacity:1"
         d="m 391.71875,441.5 c -0.0875,0.032 -0.0745,0.17566 0.125,0.65625 l -0.0312,0 c -0.21699,5.31757 0.55447,10.41019 0.375,15.71875 -0.4964,3.71629 -0.51934,9.13115 3.21875,10.71875 1.8147,1.60117 4.0092,1.74744 6.78125,1.78125 1.55462,-0.88641 2.39697,-1.973 3.9375,-3.21875 1.7606,-0.49275 3.13425,-1.49263 5,-2.125 3.7586,0.14835 8.45877,-0.62107 11.0625,1.4375 1.37843,1.49964 3.58486,2.83071 4.625,4.28125 2.13184,2.02126 5.75126,3.10877 9.3125,2.125 1.493,-1.32904 2.70368,-2.26676 4.28125,-3.21875 1.58067,-1.50711 2.00308,-4.69946 1.78125,-8 -0.26342,-2.8992 -0.34357,-6.04782 -1,-9.125"
         id="path5323"
         sodipodi:nodetypes="cccccccccccccc" />
    </g>
    <path
       style="fill:none;stroke:none"
       d="m 195,94.944961 c 0,0 18.95346,-68.244388 83,-66.5 64.54499,1.757964 80,65 80,65"
       id="path5772"
       sodipodi:nodetypes="czc"
       transform="translate(118.81538,353.31087)" />
    <g
       style="font-size:17.64054298px;font-style:normal;font-variant:normal;font-weight:bold;font-stretch:normal;text-align:center;line-height:125%;writing-mode:lr-tb;text-anchor:middle;fill:#000000;fill-opacity:1;stroke:none;font-family:Bitstream Vera Serif;-inkscape-font-specification:Bitstream Vera Serif Bold"
       id="text5774">
      <path
         d="m 320.57193,431.56359 -0.91716,-0.49505 0.78144,-1.44775 -9.48242,-5.11822 -0.78144,1.44775 -0.91716,-0.49504 3.14212,-5.82134 0.91716,0.49504 -0.78553,1.45534 9.48242,5.11822 0.78553,-1.45534 0.91717,0.49505 -3.14213,5.82134"
         style="font-size:17.64054298px;font-style:normal;font-variant:normal;font-weight:bold;font-stretch:normal;text-align:center;line-height:125%;writing-mode:lr-tb;text-anchor:middle;font-family:Bitstream Vera Serif;-inkscape-font-specification:Bitstream Vera Serif Bold"
         id="path5898" />
      <path
         d="m 324.35773,424.24523 -0.85835,-0.59119 0.9332,-1.35491 -8.87429,-6.11222 -0.9332,1.35491 -0.85835,-0.59119 2.2817,-3.31279 11.90028,-1.22712 -6.63977,-4.57317 -0.92831,1.34781 -0.85835,-0.59119 2.55043,-3.70294 0.85834,0.59119 -0.9332,1.35491 9.73264,6.70341 -1.28009,1.85857 -12.12474,1.21894 6.79582,4.68066 0.92832,-1.34782 0.85834,0.59119 -2.55042,3.70295"
         style="font-size:17.64054298px;font-style:normal;font-variant:normal;font-weight:bold;font-stretch:normal;text-align:center;line-height:125%;writing-mode:lr-tb;text-anchor:middle;font-family:Bitstream Vera Serif;-inkscape-font-specification:Bitstream Vera Serif Bold"
         id="path5900" />
      <path
         d="m 340.64933,402.22163 0.88463,-0.8068 c 0.99282,-0.90546 1.42812,-1.88536 1.30593,-2.9397 -0.11797,-1.05819 -0.80962,-2.28099 -2.07495,-3.6684 -1.2576,-1.37891 -2.40379,-2.1755 -3.43857,-2.38979 -1.03865,-0.2185 -2.05651,0.12692 -3.05357,1.03624 l -0.88463,0.8068 7.26116,7.96165 m -2.96347,4.11334 -0.70232,-0.77007 1.21557,-1.10862 -7.26117,-7.96165 -1.21557,1.10862 -0.70232,-0.77007 4.875,-4.44609 c 1.70562,-1.55553 3.38176,-2.3381 5.02843,-2.34771 1.64666,-0.01 3.16845,0.75147 4.56535,2.28311 1.40463,1.54016 2.02638,3.1337 1.86524,4.78063 -0.16078,1.63884 -1.09185,3.23409 -2.79321,4.78576 l -4.875,4.44609"
         style="font-size:17.64054298px;font-style:normal;font-variant:normal;font-weight:bold;font-stretch:normal;text-align:center;line-height:125%;writing-mode:lr-tb;text-anchor:middle;font-family:Bitstream Vera Serif;-inkscape-font-specification:Bitstream Vera Serif Bold"
         id="path5902" />
      <path
         d="m 354.52868,391.84697 c 0.93675,-0.57045 1.39277,-1.38937 1.36804,-2.45677 -0.0247,-1.06738 -0.5314,-2.41278 -1.51999,-4.03619 -0.99158,-1.62829 -1.95586,-2.69838 -2.89283,-3.21026 -0.93698,-0.51185 -1.87385,-0.48256 -2.81062,0.0879 -0.93186,0.56749 -1.38489,1.39131 -1.35909,2.47149 0.0277,1.07231 0.5329,2.41525 1.51551,4.02883 0.97963,1.6087 1.94093,2.67388 2.88388,3.19555 0.94486,0.51379 1.88323,0.48695 2.8151,-0.0805 m 0.54208,0.89018 c -1.84902,1.12598 -3.60593,1.50338 -5.27076,1.13219 -1.66482,-0.37118 -3.03783,-1.44449 -4.11901,-3.21994 -1.08117,-1.77543 -1.40461,-3.48789 -0.9703,-5.13739 0.43624,-1.65736 1.5764,-3.04754 3.42051,-4.17055 1.84901,-1.12596 3.60592,-1.50336 5.27075,-1.13219 1.66482,0.3712 3.03932,1.44696 4.12349,3.22729 1.08117,1.77545 1.40215,3.48941 0.96295,5.14187 -0.43433,1.64949 -1.57353,3.03573 -3.41763,4.15872"
         style="font-size:17.64054298px;font-style:normal;font-variant:normal;font-weight:bold;font-stretch:normal;text-align:center;line-height:125%;writing-mode:lr-tb;text-anchor:middle;font-family:Bitstream Vera Serif;-inkscape-font-specification:Bitstream Vera Serif Bold"
         id="path5904" />
      <path
         d="m 370.06725,376.14307 c -0.62225,-0.98605 -1.30178,-1.61694 -2.03857,-1.89268 -0.73872,-0.28113 -1.62518,-0.2391 -2.65938,0.12609 -1.25621,0.44361 -2.02836,1.19738 -2.31645,2.2613 -0.2846,1.05662 -0.1028,2.50271 0.54539,4.33828 0.64245,1.81933 1.39724,3.06004 2.26439,3.72212 0.86523,0.65667 1.89346,0.77467 3.08469,0.35402 0.45483,-0.16061 0.85901,-0.36119 1.21255,-0.60174 0.35352,-0.24055 0.65368,-0.5201 0.9005,-0.83868 l -1.17591,-3.33003 -1.46197,0.51626 -0.34417,-0.97465 4.36965,-1.54303 1.64341,4.65392 c -0.76054,0.74358 -1.5593,1.37886 -2.3963,1.90584 -0.8316,0.52507 -1.72118,0.95491 -2.66874,1.28952 -2.07925,0.73423 -3.91238,0.75125 -5.4994,0.0511 -1.58161,-0.70209 -2.71659,-2.02778 -3.40493,-3.97707 -0.69025,-1.9547 -0.64037,-3.70183 0.14965,-5.24142 0.79544,-1.54148 2.23277,-2.67934 4.31201,-3.41359 0.86635,-0.30591 1.74975,-0.52042 2.65022,-0.64354 0.90045,-0.12308 1.83788,-0.15875 2.81227,-0.10701 l 1.05259,2.98079 -1.0315,0.36424"
         style="font-size:17.64054298px;font-style:normal;font-variant:normal;font-weight:bold;font-stretch:normal;text-align:center;line-height:125%;writing-mode:lr-tb;text-anchor:middle;font-family:Bitstream Vera Serif;-inkscape-font-specification:Bitstream Vera Serif Bold"
         id="path5906" />
      <path
         d="m 396.8696,381.59175 -2.22104,0.0748 -3.22479,-9.25965 -2.59467,9.45559 -2.22103,0.0748 -4.06497,-11.68762 -1.24825,0.042 -0.0351,-1.04165 6.09493,-0.20521 0.0351,1.04165 -1.37738,0.0464 2.71926,7.81154 2.47113,-9.02912 2.44486,-0.0823 3.12943,8.98707 2.23441,-8.12484 -1.53235,0.0516 -0.0351,-1.04165 3.97721,-0.13391 0.0351,1.04165 -1.31713,0.0443 -3.26962,11.93457"
         style="font-size:17.64054298px;font-style:normal;font-variant:normal;font-weight:bold;font-stretch:normal;text-align:center;line-height:125%;writing-mode:lr-tb;text-anchor:middle;font-family:Bitstream Vera Serif;-inkscape-font-specification:Bitstream Vera Serif Bold"
         id="path5908" />
      <path
         d="m 402.49558,381.87688 0.15812,-1.03017 1.62615,0.24959 1.63477,-10.65081 -1.62614,-0.2496 0.15812,-1.03017 11.42557,1.75369 -0.45998,2.99687 -1.17491,-0.18034 0.28096,-1.83047 -5.3467,-0.82066 -0.62594,4.07814 3.32891,0.51094 0.24829,-1.61763 1.16639,0.17903 -0.67429,4.39314 -1.1664,-0.17902 0.24829,-1.61763 -3.32891,-0.51095 -0.7893,5.14236 5.50846,0.84548 0.28096,-1.83047 1.16639,0.17902 -0.45998,2.99688 -11.57883,-1.77722"
         style="font-size:17.64054298px;font-style:normal;font-variant:normal;font-weight:bold;font-stretch:normal;text-align:center;line-height:125%;writing-mode:lr-tb;text-anchor:middle;font-family:Bitstream Vera Serif;-inkscape-font-specification:Bitstream Vera Serif Bold"
         id="path5910" />
      <path
         d="m 423.87939,386.6277 0.39746,-0.96348 1.5766,0.6504 4.05676,-9.83382 -3.25671,-1.3435 -0.77522,1.87918 -1.09087,-0.45002 1.22524,-2.97005 11.78465,4.86154 -1.22523,2.97005 -1.07496,-0.44345 0.77522,-1.87918 -3.28059,-1.35335 -4.05676,9.83382 1.58456,0.65368 -0.39747,0.96348 -6.24268,-2.5753"
         style="font-size:17.64054298px;font-style:normal;font-variant:normal;font-weight:bold;font-stretch:normal;text-align:center;line-height:125%;writing-mode:lr-tb;text-anchor:middle;font-family:Bitstream Vera Serif;-inkscape-font-specification:Bitstream Vera Serif Bold"
         id="path5912" />
      <path
         d="m 444.39793,390.16415 c 0.38917,0.33957 0.65945,0.71524 0.81084,1.12702 0.15136,0.41177 0.20037,0.89762 0.147,1.45754 l -0.36236,4.02917 1.10782,0.71381 -0.56452,0.87612 -3.55516,-2.29073 0.38085,-4.3759 c 0.10236,-0.89041 0.0944,-1.50353 -0.0239,-1.83936 -0.11041,-0.33755 -0.37317,-0.64007 -0.7883,-0.90755 l -0.44167,-0.2846 -2.552,3.96063 1.3902,0.89577 -0.56452,0.87612 -5.56081,-3.58306 0.56452,-0.87612 1.38296,0.8911 5.83647,-9.05804 -1.38296,-0.8911 0.56451,-0.87612 6.16903,3.97496 c 1.25503,0.80868 2.05957,1.68572 2.41362,2.63111 0.36196,0.94368 0.24436,1.87892 -0.35279,2.80572 -0.48523,0.75302 -1.11311,1.1921 -1.88367,1.31723 -0.76265,0.12341 -1.67435,-0.0678 -2.73511,-0.57372 m -2.7296,-2.36335 0.94852,0.61117 c 0.67578,0.43544 1.31289,0.58637 1.91131,0.45278 0.60323,-0.13047 1.12413,-0.53602 1.56269,-1.21664 0.43854,-0.68062 0.59102,-1.32014 0.45745,-1.91856 -0.12878,-0.59529 -0.53105,-1.11067 -1.20683,-1.54611 l -0.94853,-0.61118 -2.72461,4.22854"
         style="font-size:17.64054298px;font-style:normal;font-variant:normal;font-weight:bold;font-stretch:normal;text-align:center;line-height:125%;writing-mode:lr-tb;text-anchor:middle;font-family:Bitstream Vera Serif;-inkscape-font-specification:Bitstream Vera Serif Bold"
         id="path5914" />
      <path
         d="m 455.27061,391.32495 -1.18576,-1.12799 0.71835,-0.75514 4.79297,4.55942 -0.71834,0.75514 -1.19201,-1.13391 -4.43474,4.66191 c -1.10425,1.1608 -1.69702,2.14636 -1.77832,2.95667 -0.0773,0.80615 0.32291,1.62678 1.2008,2.46189 0.85707,0.8153 1.68615,1.16016 2.48724,1.03455 0.8092,-0.12582 1.76196,-0.76496 2.85829,-1.91743 l 4.43475,-4.66192 -1.18577,-1.12798 0.71835,-0.75515 3.24524,3.08711 -0.71834,0.75514 -1.19201,-1.13391 -4.55942,4.79297 c -1.35359,1.42291 -2.62718,2.14521 -3.82077,2.1669 -1.18966,0.0175 -2.5105,-0.66436 -3.96254,-2.04564 -1.44372,-1.37337 -2.18464,-2.66071 -2.22276,-3.86203 -0.0381,-1.20132 0.61762,-2.51136 1.96725,-3.93011 l 4.54754,-4.78049"
         style="font-size:17.64054298px;font-style:normal;font-variant:normal;font-weight:bold;font-stretch:normal;text-align:center;line-height:125%;writing-mode:lr-tb;text-anchor:middle;font-family:Bitstream Vera Serif;-inkscape-font-specification:Bitstream Vera Serif Bold"
         id="path5916" />
      <path
         d="m 457.89643,409.77978 2.42608,-1.84707 0.66266,0.87037 c -0.66671,0.71688 -1.00183,1.4664 -1.00536,2.24856 -0.004,0.78215 0.32687,1.60956 0.99127,2.48223 0.53916,0.70817 1.08441,1.14468 1.63573,1.30954 0.55132,0.16484 1.08741,0.049 1.60827,-0.34755 0.41119,-0.31307 0.63536,-0.68221 0.67249,-1.10742 0.0371,-0.42521 -0.14523,-1.10553 -0.54706,-2.04096 l -0.79184,-1.82212 c -0.50594,-1.19539 -0.68754,-2.16858 -0.54479,-2.91958 0.14729,-0.75448 0.64128,-1.45174 1.48197,-2.09179 1.01429,-0.77222 2.05809,-1.03644 3.13141,-0.79267 1.08135,0.24486 2.08467,0.97496 3.00996,2.19028 0.45567,0.59853 0.87848,1.25816 1.26845,1.9789 0.39342,0.72532 0.75398,1.51173 1.08169,2.35926 l -2.2616,1.72185 -0.66265,-0.87037 c 0.60272,-0.66819 0.89583,-1.34964 0.87935,-2.04437 -0.012,-0.6982 -0.33272,-1.46079 -0.96231,-2.28776 -0.51483,-0.67619 -1.02321,-1.09747 -1.52515,-1.26383 -0.49391,-0.16526 -0.97387,-0.0705 -1.43989,0.28431 -0.42492,0.32351 -0.65887,0.68927 -0.70185,1.0973 -0.0384,0.40455 0.17662,1.16101 0.64518,2.26937 l 0.79184,1.82213 c 0.48594,1.13121 0.63937,2.10059 0.4603,2.90813 -0.17561,0.81211 -0.70431,1.55384 -1.5861,2.22519 -1.03258,0.78613 -2.08975,1.02806 -3.17152,0.72578 -1.07721,-0.30577 -2.1428,-1.15084 -3.19678,-2.53521 -0.50786,-0.66707 -0.95513,-1.37304 -1.34181,-2.11792 -0.38668,-0.74488 -0.72266,-1.54641 -1.00794,-2.40458"
         style="font-size:17.64054298px;font-style:normal;font-variant:normal;font-weight:bold;font-stretch:normal;text-align:center;line-height:125%;writing-mode:lr-tb;text-anchor:middle;font-family:Bitstream Vera Serif;-inkscape-font-specification:Bitstream Vera Serif Bold"
         id="path5918" />
      <path
         d="m 465.8912,422.01071 0.90491,-0.51711 0.84617,1.48077 9.23608,-5.2779 -1.7479,-3.05875 -1.76495,1.00857 -0.58548,-1.02457 2.78952,-1.59405 6.32492,11.06834 -2.78952,1.59405 -0.57693,-1.00961 1.76495,-1.00857 -1.76073,-3.08119 -9.23607,5.2779 0.85044,1.48824 -0.90491,0.5171 -3.3505,-5.86322"
         style="font-size:17.64054298px;font-style:normal;font-variant:normal;font-weight:bold;font-stretch:normal;text-align:center;line-height:125%;writing-mode:lr-tb;text-anchor:middle;font-family:Bitstream Vera Serif;-inkscape-font-specification:Bitstream Vera Serif Bold"
         id="path5920" />
    </g>
    <g
       id="g5875"
       transform="matrix(1.0638461,0,0,1.0638461,-25.284368,-33.568051)">
      <path
         id="path5848"
         d="m 458.31538,512.87337 c -5.49391,-2.14434 -11.74238,3.85734 -5.59375,5.75 -2.9027,-0.47787 -7.36527,2.03351 -8.1875,4.53125 -1.22154,-6.1254 -8.68491,-3.99909 -12.9675,-3.94458 -6.84343,-0.006 -13.60883,-0.16273 -20.75125,0.13208 0.39603,2.76757 -3.2287,-1.41994 -5.15625,-0.59375 -3.70618,-0.2065 -7.56374,2.06874 -8.59375,5.71875 -2.76428,-6.30046 5.52595,-6.95183 1.5,-11.25 -7.5625,0 -15.125,0 -22.6875,0 0.53971,3.04756 0.23609,4.63132 -2.65625,5.1875 -2.44724,1.22615 -6.2747,-0.55396 -8.6875,1.90625 -1.50505,1.71595 -1.98533,2.33502 -3.5,0.1875 -4.20047,-3.35928 -11.49129,-1.71379 -13.34375,3.4375 -3.85633,-1.23198 -2.707,6.13874 -7.0625,5.09375 0.3653,-3.84266 -2.06076,-11.48411 2.53125,-11.53125 1.73208,-7.6175 -8.68644,-3.08439 -13.375,-4.28125 -0.91232,5.87065 4.70883,5.20784 2.46875,12.40625 1.26322,4.15687 -7.01562,7.58316 0.53125,8.6875 5.1476,-1.12687 14.65875,2.33344 16.875,-1.875 3.42237,3.76271 9.97988,2.04754 12.75,-0.21875 -2.32467,3.19646 1.16056,7.24064 4.875,6.78125 3.95557,0.40713 9.76207,-0.0707 10.90625,-4.6875 7.125,0 14.25,0 21.375,0 -0.57618,-3.13984 2.9889,1.11368 4.875,0.34375 3.36898,0.96953 7.31791,-2.58055 8.5,-3.9375 1.75486,5.67963 8.74208,3.47586 12.93471,3.46437 6.56228,0.25512 13.83035,0.0737 20.69029,0.12938 -0.3065,-2.33191 3.14371,1.34456 4.96875,0.375 3.47786,-1.08602 9.12455,0.65841 10.9375,-1.71875 -1.00872,-4.73086 -3.07136,-8.40781 -2.03125,-15.1875 -0.67114,-1.88539 1.77153,-6.41801 -2.125,-4.90625 z m -71.5625,5.625 c 5.92261,-1.1355 -1.23143,6.83809 0,0 z m -8.40625,10.40625 c -3.2499,1.02682 -2.38353,-0.69258 -1.25,-2.4375 -0.18478,-1.78903 1.73401,-3.98832 1.25,-0.53125 0,0.98958 0,1.97917 0,2.96875 z m -22.625,-4.8125 c 0.45152,1.08088 0.59595,5.21453 -0.21875,4.8125 -0.2791,-1.51764 -0.44147,-3.46293 0.21875,-4.8125 z m 49.5625,0 c 0.45152,1.08088 0.59595,5.21453 -0.21875,4.8125 -0.2791,-1.51764 -0.44147,-3.46293 0.21875,-4.8125 z m 15.34375,0.40625 c 0.22702,1.67201 -0.36759,6.19008 -0.21875,1.34375 0.7963,0.27546 -0.57755,-1.61921 0.21875,-1.34375 z m 8.46875,0 c 0.92139,7.07653 -2.47706,3.9071 0,0 z m 23.3125,0.125 c 0.87694,0.92501 0.0156,6.13877 -0.40625,3.0625 -0.0222,-0.87206 -0.15001,-2.62647 0.40625,-3.0625 z m -15.4375,0.78125 c 0.24053,5.07468 -0.45983,3.3874 -0.0312,0 -0.0165,-0.056 0.0845,-0.18933 0.0312,0 z m -48.15625,0.875 c 1.64973,6.74103 -6.88205,0.13646 0,0 z"
         style="font-size:23.69284058px;font-style:normal;font-variant:normal;font-weight:bold;font-stretch:normal;text-align:center;line-height:69.99999881%;writing-mode:lr-tb;text-anchor:middle;fill:url(#radialGradient5930);fill-opacity:1;stroke:none;font-family:Century Schoolbook L;-inkscape-font-specification:Century Schoolbook L Bold" />
      <g
         style="font-size:23.69284058px;font-style:normal;font-variant:normal;font-weight:bold;font-stretch:normal;text-align:center;line-height:69.99999881%;writing-mode:lr-tb;text-anchor:middle;fill:#000000;fill-opacity:1;stroke:none;font-family:Century Schoolbook L;-inkscape-font-specification:Century Schoolbook L Bold"
         id="text5805">
        <path
           d="m 346.68218,525.94804 c -0.47386,1.6348 -0.90033,2.53513 -1.54004,3.31699 -0.9714,1.16095 -2.3219,1.77697 -4.00409,1.77697 l -0.49755,0 c -1.16094,0 -1.46895,-0.0474 -1.75327,-0.3317 -0.308,-0.28432 -0.37908,-0.54494 -0.37908,-1.3268 l 0,-10.75655 c 0,-1.49265 0,-1.58742 0.16585,-1.77696 0.21323,-0.26062 0.71079,-0.3554 1.9665,-0.3554 l 0.52125,0 0,-1.27941 -9.38237,0 0,1.27941 0.35539,0 c 1.23203,0 1.72958,0.0948 1.94282,0.3554 0.16585,0.18954 0.16585,0.28431 0.16585,1.77696 l 0,10.259 c 0,1.51634 0,1.61111 -0.16585,1.80066 -0.21324,0.26062 -0.71079,0.35539 -1.94282,0.35539 l -0.35539,0 0,1.27941 15.87421,0 0.28431,-6.37337 -1.25572,0"
           style="line-height:69.99999881%;fill:#000000;font-family:Century Schoolbook L;-inkscape-font-specification:Century Schoolbook L Bold"
           id="path5881" />
        <path
           d="m 355.74839,520.7593 c -3.76716,0 -6.56292,2.55884 -6.56292,5.9706 0,3.43546 2.72469,5.9469 6.46815,5.9469 3.74347,0 6.51553,-2.51144 6.51553,-5.89951 0,-3.36438 -2.81945,-6.01799 -6.42076,-6.01799 m -0.0474,1.23203 c 0.82924,0 1.58742,0.56863 1.89542,1.39788 0.28432,0.78186 0.47386,2.13236 0.47386,3.36438 0,3.00899 -0.87664,4.69119 -2.39298,4.69119 -1.58742,0 -2.39297,-1.58743 -2.39297,-4.71488 0,-3.12745 0.82925,-4.73857 2.41667,-4.73857"
           style="line-height:69.99999881%;fill:#000000;font-family:Century Schoolbook L;-inkscape-font-specification:Century Schoolbook L Bold"
           id="path5883" />
        <path
           d="m 369.16631,530.02321 c -1.25572,0 -1.54003,-0.11847 -1.54003,-0.6871 0,-0.59232 0.42647,-0.78186 1.80065,-0.78186 l 0.42647,0 c 1.56373,0 2.44037,-0.14216 3.3407,-0.56863 1.37418,-0.6397 2.17974,-1.84804 2.17974,-3.2933 0,-1.11357 -0.37909,-1.82435 -1.42157,-2.67729 0.308,-0.42648 0.59232,-0.6634 0.87663,-0.6634 0.0711,0 0.11847,0.0237 0.11847,0.11846 l 0,0.0948 c 0,0.54494 0.6397,1.06618 1.27941,1.06618 0.82925,0 1.46895,-0.6634 1.46895,-1.51634 0,-0.92402 -0.71078,-1.54004 -1.75327,-1.54004 -1.06617,0 -1.99019,0.56863 -3.03268,1.87174 -0.90033,-0.45017 -1.96651,-0.6871 -3.17484,-0.6871 -3.24592,0 -5.59151,1.70589 -5.59151,4.05148 0,1.58742 0.90033,2.74837 2.60621,3.34069 -1.84804,0.3317 -2.74837,1.08987 -2.74837,2.3219 0,1.04248 0.78187,1.82435 2.15605,2.20343 -1.58742,0.23693 -2.51144,0.9951 -2.51144,2.10867 0,1.56372 1.91912,2.32189 5.78105,2.32189 4.40687,0 6.87093,-1.39788 6.87093,-3.93301 0,-1.32679 -0.78187,-2.44036 -1.96651,-2.79575 -0.78186,-0.26062 -1.82435,-0.35539 -3.53023,-0.35539 l -1.63481,0 m 0.63971,-8.03188 c 1.13725,0 1.72958,0.94772 1.72958,2.74837 0,1.68219 -0.63971,2.67729 -1.75327,2.67729 -0.71079,0 -1.16095,-0.26062 -1.42157,-0.85294 -0.26063,-0.52124 -0.37909,-1.20833 -0.37909,-1.9665 0,-1.72958 0.61602,-2.60622 1.82435,-2.60622 m 0.90033,11.34887 c 1.46895,0 1.75327,0.0474 2.15605,0.30801 0.21323,0.14216 0.35539,0.47386 0.35539,0.78186 0,0.97141 -1.18465,1.44527 -3.62501,1.44527 -1.82434,0 -2.86683,-0.49755 -2.86683,-1.37419 0,-0.52124 0.28431,-0.90033 0.87663,-1.16095 l 3.10377,0"
           style="line-height:69.99999881%;fill:#000000;font-family:Century Schoolbook L;-inkscape-font-specification:Century Schoolbook L Bold"
           id="path5885" />
        <path
           d="m 390.80565,524.28954 0,4.6201 c 0,1.49265 0,1.58742 -0.16585,1.77697 -0.21323,0.26062 -0.71079,0.35539 -1.94281,0.35539 l -0.35539,0 0,1.27941 9.21651,0 0,-1.27941 -0.35539,0 c -1.23203,0 -1.75327,-0.0948 -1.96651,-0.35539 -0.16585,-0.18955 -0.16585,-0.26063 -0.16585,-1.77697 l 0,-10.259 c 0,-1.51634 0,-1.61111 0.16585,-1.80065 0.21324,-0.26062 0.73448,-0.3554 1.96651,-0.3554 l 0.35539,0 0,-1.27941 -9.21651,0 0,1.27941 0.35539,0 c 1.23202,0 1.72958,0.0948 1.94281,0.3554 0.16585,0.18954 0.16585,0.308 0.16585,1.80065 l 0,4.21733 -6.18383,0 0,-4.21733 c 0,-1.51634 0,-1.61111 0.16585,-1.80065 0.21323,-0.26062 0.73448,-0.3554 1.9665,-0.3554 l 0.3554,0 0,-1.27941 -9.21652,0 0,1.27941 0.3554,0 c 1.23202,0 1.72957,0.0948 1.94281,0.3554 0.16585,0.18954 0.16585,0.28431 0.16585,1.80065 l 0,10.259 c 0,1.49265 0,1.58742 -0.16585,1.77697 -0.21324,0.26062 -0.71079,0.35539 -1.94281,0.35539 l -0.3554,0 0,1.27941 9.21652,0 0,-1.27941 -0.3554,0 c -1.23202,0 -1.75327,-0.0948 -1.9665,-0.35539 -0.16585,-0.18955 -0.16585,-0.26063 -0.16585,-1.77697 l 0,-4.6201 6.18383,0"
           style="line-height:69.99999881%;fill:#000000;font-family:Century Schoolbook L;-inkscape-font-specification:Century Schoolbook L Bold"
           id="path5887" />
        <path
           d="m 405.309,520.7593 c -3.76716,0 -6.56292,2.55884 -6.56292,5.9706 0,3.43546 2.72469,5.9469 6.46815,5.9469 3.74347,0 6.51553,-2.51144 6.51553,-5.89951 0,-3.36438 -2.81945,-6.01799 -6.42076,-6.01799 m -0.0474,1.23203 c 0.82924,0 1.58742,0.56863 1.89542,1.39788 0.28432,0.78186 0.47386,2.13236 0.47386,3.36438 0,3.00899 -0.87664,4.69119 -2.39298,4.69119 -1.58742,0 -2.39297,-1.58743 -2.39297,-4.71488 0,-3.12745 0.82925,-4.73857 2.41667,-4.73857"
           style="line-height:69.99999881%;fill:#000000;font-family:Century Schoolbook L;-inkscape-font-specification:Century Schoolbook L Bold"
           id="path5889" />
        <path
           d="m 426.33233,521.1147 -5.61521,0.16585 0,1.20833 0.37909,0 c 1.44526,0 1.51634,0.0948 1.51634,2.29821 l 0,1.89543 c 0,1.18464 -0.0948,1.84804 -0.40278,2.44036 -0.37908,0.80555 -1.20833,1.35049 -2.10866,1.35049 -1.18464,0 -1.68219,-0.73448 -1.68219,-2.53513 l 0,-6.82354 -5.61521,0.16585 0,1.20833 0.37909,0 c 1.46895,0 1.49265,0.0474 1.51634,2.29821 l 0,3.00899 c 0,1.75327 0.0474,2.17974 0.37909,2.84314 0.6397,1.3031 1.89543,2.03758 3.50654,2.03758 1.68219,0 2.81945,-0.61601 4.19363,-2.2982 l 0,1.94281 5.52043,-0.26062 0,-1.27941 -0.6634,0 c -1.11356,0 -1.3031,-0.16585 -1.3031,-1.0188 l 0,-0.54493 0,-8.10295"
           style="line-height:69.99999881%;fill:#000000;font-family:Century Schoolbook L;-inkscape-font-specification:Century Schoolbook L Bold"
           id="path5891" />
        <path
           d="m 434.63778,521.1147 -5.42566,0.16585 0,1.20833 0.35539,0 c 1.44526,0 1.51634,0.0948 1.51634,2.29821 l 0,4.12255 0,1.08987 c 0,0.97141 -0.26062,1.11357 -1.77696,1.11357 l -0.0948,0 0,1.20833 7.22631,0 0,-1.20833 c -1.39787,0 -1.6348,-0.16585 -1.6348,-1.08987 l 0,-1.11357 0,-2.2982 c 0,-1.06618 0.0948,-1.6822 0.37908,-2.25082 0.37909,-0.85294 1.20834,-1.39788 2.06128,-1.39788 1.11356,0 1.72958,0.80556 1.72958,2.3219 l 0,3.625 0,1.11357 c 0,0.92402 -0.23693,1.08987 -1.63481,1.08987 l 0,1.20833 7.22632,0 0,-1.20833 -0.0948,0 c -1.51634,0 -1.77697,-0.14216 -1.77697,-1.11357 l 0,-1.08987 0,-3.9567 c 0,-1.46896 -0.26062,-2.36929 -0.90032,-3.05638 -0.63971,-0.73448 -1.70589,-1.13726 -2.93792,-1.13726 -1.87173,0 -3.05637,0.6871 -4.21732,2.44037 l 0,-2.08497"
           style="line-height:69.99999881%;fill:#000000;font-family:Century Schoolbook L;-inkscape-font-specification:Century Schoolbook L Bold"
           id="path5893" />
        <path
           d="m 458.43835,514.85979 -5.99429,0.35539 0,1.20834 0.75817,0 c 1.44526,0 1.51634,0.0948 1.51634,2.20343 l 0,3.71978 c -0.90033,-1.08987 -1.96651,-1.58743 -3.45915,-1.58743 -3.03268,0 -5.40197,2.6773 -5.40197,6.13645 0,3.43546 2.10867,5.78105 5.18873,5.78105 1.70588,0 2.91422,-0.6397 3.88563,-2.06127 l 0,1.70588 5.54412,-0.26062 0,-1.27941 -0.6397,0 c -0.85295,0 -0.92403,0 -1.11357,-0.16585 -0.21323,-0.18955 -0.28431,-0.47386 -0.28431,-1.18465 l 0,-14.57109 m -6.08906,7.51063 c 1.46895,0 2.41667,1.70589 2.41667,4.33579 0,2.58251 -0.9951,4.35948 -2.46406,4.35948 -1.49265,0 -2.34559,-1.51634 -2.34559,-4.21733 0,-2.81944 0.87664,-4.47794 2.39298,-4.47794"
           style="line-height:69.99999881%;fill:#000000;font-family:Century Schoolbook L;-inkscape-font-specification:Century Schoolbook L Bold"
           id="path5895" />
      </g>
    </g>
  </g>
</svg>
